<?xml version="1.0" encoding="utf-8"?>
<!-- Generator: Adobe Illustrator 24.0.3, SVG Export Plug-In . SVG Version: 6.00 Build 0)  -->
<svg version="1.1" xmlns="http://www.w3.org/2000/svg" xmlns:xlink="http://www.w3.org/1999/xlink" x="0px" y="0px"
	 viewBox="0 0 400 400" style="enable-background:new 0 0 400 400;" xml:space="preserve">
<style type="text/css">
	.st0{fill:#DA4C29;}
	.st1{fill:#FEC612;}
</style>
<g id="Layer_1">
</g>
<g id="Layer_2">
	<g>
		<path class="st1" d="M385.6,245.7c13-36.5,15-80.2-10.1-112.3c-0.8-1.2-2-1.6-3.2-2c-23.9-53.1-69.7-96.9-127.7-108.6
			c-81.9-17-161.3,30.8-207.5,96c-12.6,17.8-23.5,37.3-28.4,58.8c-4.9,20.7-4.5,43-1.6,64.4c2,19,6.9,37.7,17.4,53.9
			c11.3,17.8,28.8,31.2,45.8,43c35.3,24.3,73.8,40.1,117.1,41.7c40.5,1.2,80.6-9.7,114.7-31.2C339.8,325.1,370.2,287.8,385.6,245.7z
			 M316.3,325.1c-59.2,49-143.1,58.4-211.1,22.3c-34.4-18.2-71.7-43.8-82.7-82.7c-11.3-38.9-9.3-83.5,10.1-119.1
			C68.7,79.9,139.6,27.6,217,29.2c66.9,1.2,122.4,46.2,149.5,104.6c-0.8,1.6-1.2,3.2,0.4,5.3c2,2.8,4.1,5.7,5.7,8.5
			c3.2,8.9,6.1,17.8,8.1,27.2c0.4,1.2,1.2,2,2.4,2C392.9,230.7,355.6,292.3,316.3,325.1z"/>
		<path class="st1" d="M102.3,127.7c-0.8,0.4-1.2,0.8-1.6,1.2c-4.5,2-7.7,5.7-8.5,10.9c-1.2,7.7,3.2,15.8,10.9,17.4
			c8.9,1.6,18.6-5.3,18.6-14.6C121.8,133.4,111.7,124.5,102.3,127.7z"/>
		<path class="st1" d="M313.9,131c0-1.6,0-3.2-0.4-4.9c-2.8-9.7-15.4-12.2-22.7-6.1c-8.1,6.5-5.7,19.9,3.6,23.9
			C302.9,148,314.7,140.7,313.9,131z"/>
		<path class="st1" d="M318.7,208.4c-40.1,0.8-80.6-0.8-121.2-0.8c-40.1,0-81.1-2-121.2,1.2c-3.2,0.4-3.2,4.9,0,5.3
			c40.1,2.8,80.6,1.2,121.2,1.6c40.1,0.4,80.6,0,121.2,2.4C324.8,218.1,324.8,208,318.7,208.4z"/>
	</g>
</g>
</svg>
