<?xml version="1.0" encoding="utf-8"?>
<!-- Generator: Adobe Illustrator 24.0.3, SVG Export Plug-In . SVG Version: 6.00 Build 0)  -->
<svg version="1.1" xmlns="http://www.w3.org/2000/svg" xmlns:xlink="http://www.w3.org/1999/xlink" x="0px" y="0px"
	 viewBox="0 0 400 400" style="enable-background:new 0 0 400 400;" xml:space="preserve">
<style type="text/css">
	.st0{fill:#DA4C29;}
	.st1{fill:#FEC612;}
</style>
<g id="Layer_1">
</g>
<g id="Layer_2">
	<g>
		<path class="st1" d="M375.1,133.3c-0.8-1.2-2-1.6-3.2-2c-2-4.5-4.1-8.9-6.5-13.4c0.8-5.3,1.2-10.5,0.4-14.2
			c-1.2-10.1-6.1-19.5-9.3-28.8c-4.1-11.8-6.5-23.5-8.1-35.7c-0.4-3.2-6.1-2.4-5.7,0.8c0,0.8,0,1.6,0.4,2.4
			c-4.1,9.7-6.9,20.3-9.3,31.2c-23.9-25.6-54.4-43.8-89.2-51.1c-81.9-16.6-161,30.8-207.3,96.1C24.6,136.5,13.7,156,8.8,177.5
			c-4.9,21.1-4.5,43.4-2,64.5c2,19.1,6.9,37.7,17.4,54c11.4,17.8,28.8,31.2,45.8,43c35.3,24.3,73.8,40.2,117.2,41.8
			c40.6,1.2,80.7-9.7,114.8-31.2c37.7-24.3,68.6-61.3,83.6-103.8C398.6,209.1,400.7,165.3,375.1,133.3z M338.2,93.5
			c1.2-11.8,4.1-23.5,6.9-34.9c1.6,7.7,3.7,15.4,6.5,23.1c5.3,14.6,11,30,1.6,44.2c-4.1,6.5-12.2,5.3-15-2
			c-1.2-3.2-1.6-6.9-1.6-10.5C336.6,106.9,337.4,100,338.2,93.5z M316.3,325.6c-59.2,49.1-143.2,58-211.3,21.9
			c-34.5-18.3-71.4-43.4-82.8-82.8c-11-38.9-8.9-83.6,10.5-118.9C68.4,79.7,139.8,27.4,216.9,29c45,0.8,85.2,21.9,114.8,53.1
			c-1.2,8.1-2.4,15.8-3.2,23.5c-1.2,12.2,0.4,35.3,17.8,35.3c8.1,0,13.8-6.5,16.6-14.6c1.2,2.4,2.4,4.9,3.7,7.3
			c-0.8,1.6-1.2,3.2,0.4,5.3c2,2.8,4.1,5.7,5.7,8.5c3.2,8.9,6.1,17.8,8.1,27.2c0.4,1.2,1.2,2,2.4,2
			C393.4,230.6,355.6,292.7,316.3,325.6z"/>
		<path class="st1" d="M355.6,192.5L355.6,192.5L355.6,192.5c0-0.4-0.4-0.8-0.4-1.2l0,0c0-0.4-0.4-0.4-0.4-0.8
			c0-0.4-0.4-0.8-0.8-1.2c0,0,0-0.4-0.4-0.4c0-0.4-0.4-0.8-0.4-0.8c-0.8-1.6-2-2.8-3.7-4.1c-0.4-0.4-1.2-0.8-1.6-1.2
			c-8.5-10.1-25.6-13.4-38.9-10.1c-14.6,3.2-27.6,11.8-41.4,16.6c-15.4,5.3-31.2,8.1-47.5,8.9c-33.3,2-66.1-3.7-99-8.9
			c-21.5-3.7-50.3-9.7-65.7,10.5c-14.2,18.7-9.7,47.9-2,68.2c10.1,25.6,28.4,42.2,51.5,55.6c25.6,14.6,50.3,24.7,80.3,23.5
			c29.2-1.2,57.2-10.5,83.2-23.1c27.2-11.4,54-27.6,69.4-53.1c8.5-13.4,13.8-28.8,18.3-43.8C360.1,215.2,364.1,203,355.6,192.5z
			 M119.1,197.8c24.7,4.1,49.5,8.1,74.6,9.3c26.4,1.2,53.1-1.2,77.9-10.1c6.9-2.4,13.4-5.7,19.9-8.9c-11.4,38.5-62.1,42.6-96.1,43.8
			c-20.7,0.8-41.8-0.4-61.7-6.5c-16.6-4.9-34.5-13.8-40.6-30.4C102.1,194.9,111.4,196.6,119.1,197.8z M343.9,233.9
			c-4.1,12.2-8.9,23.9-16.2,34.9c-13,19.1-33.3,32-53.5,42.6c-44.6,22.7-97.4,38.1-144.8,14.6c-21.5-10.5-44.2-22.7-58-43.4
			c-12.2-18.3-20.3-43.4-14.2-65.3c4.5-16.2,15.8-21.5,29.2-22.3c3.2,17,18.7,28.4,34.1,34.9c22.7,9.7,48.3,12.2,73,12.2
			c40.6-0.4,100.6-7.3,109.1-57.2c0-0.4,0-0.8,0-1.2c2.4-0.8,4.5-1.6,6.9-2c8.9-2,19.5-1.6,27.2,2.4c-0.4,1.6,0.4,2.8,2,3.7
			c1.6,0.8,3.2,1.2,4.9,2c2.4,3.2,3.7,7.7,3.7,13c0,2,2.4,3.2,4.1,2.8C352.4,214.4,346.3,227,343.9,233.9z"/>
		<path class="st1" d="M122.4,120.7c-2-0.8-4.1-0.8-6.5-0.4c-10.5,2-15.4,9.7-17,18.3c-1.6,4.9-2.4,9.7-2,14.2
			c0.4,6.1,9.7,6.1,9.3,0c-0.8-7.7,1.6-16.6,8.5-21.1c2.4-1.6,4.5-2,6.5-1.6c5.3,3.7,7.3,14.6,8.1,19.9c0.8,4.1,6.9,3.7,8.1,0
			C140.2,139.4,134.1,122.7,122.4,120.7z"/>
		<path class="st1" d="M295.6,115L295.6,115c-1.6-0.8-3.2-1.2-4.9-1.6c-5.7-1.2-9.7,0.4-13,3.7c-6.5,4.9-9.7,14.2-8.9,22.7
			c0.4,2.8,4.1,4.1,5.7,2.4c2,0,4.1-1.6,4.1-4.1c0.4-4.5,1.6-12.2,5.7-14.6c0.8-0.4,2-0.8,3.2-0.8c9.3-0.4,10.5,12.2,11,18.7
			c0.4,4.5,7.3,6.1,8.5,1.2C309.4,132.1,304.9,119.9,295.6,115z"/>
	</g>
</g>
</svg>
